# xmcd CD database file
#
# Track frame offsets:
#	150
#	15625
#	34677
#	53160
#	70442
#	86600
#	103562
#	119879
#	136362
#	150363
#
# Disc length: 2192 seconds
#
# Revision: 0
# Processed by: cddbd v1.5.1PL2 Copyright (c) Steve Scherf et al.
# Submitted via: CDex 1.51
#
DISCID=82088e0a
DTITLE=Shiela Marshall - Makes Perfect Sense
DYEAR=2005
DGENRE=Country
TTITLE0=Radio
TTITLE1=Makes Perfect Sense
TTITLE2=Believe
TTITLE3=Goodbye
TTITLE4=Should've Said
TTITLE5=Zip Zero
TTITLE6=Wrong
TTITLE7=Today
TTITLE8=Sun's Gonna Rise
TTITLE9=Intrigued
EXTD=YEAR: 2005
EXTT0=
EXTT1=
EXTT2=
EXTT3=
EXTT4=
EXTT5=
EXTT6=
EXTT7=
EXTT8=
EXTT9=
PLAYORDER=
